<svg width="24" height="24" viewBox="0 0 24 24" fill="none" xmlns="http://www.w3.org/2000/svg">
<path d="M17.6836 9.27961L12.9054 2.16964C12.8034 2.02608 12.6675 1.90953 12.5097 1.83018C12.3518 1.75083 12.1768 1.71109 12 1.71443C11.6509 1.71443 11.3018 1.86617 11.0945 2.18048L6.31632 9.27961H1.09086C0.490863 9.27961 -4.57764e-05 9.76734 -4.57764e-05 10.3635C-4.57764e-05 10.461 0.0108633 10.5585 0.0435905 10.6561L2.8145 20.7033C3.06541 21.6137 3.90541 22.2857 4.90905 22.2857H19.0909C20.0945 22.2857 20.9345 21.6137 21.1963 20.7033L23.9672 10.6561L24 10.3635C24 9.76734 23.509 9.27961 22.909 9.27961H17.6836ZM8.72723 9.27961L12 4.51073L15.2727 9.27961H8.72723ZM12 17.9503C10.8 17.9503 9.81814 16.9749 9.81814 15.7826C9.81814 14.5904 10.8 13.615 12 13.615C13.2 13.615 14.1818 14.5904 14.1818 15.7826C14.1818 16.9749 13.2 17.9503 12 17.9503Z" fill="white"/>
</svg>
