<svg width="15" height="15" viewBox="0 0 15 15" fill="none" xmlns="http://www.w3.org/2000/svg">
<g clip-path="url(#clip0_15254_45)">
<path d="M6.93376 6.00001H8.06709V4.30001H9.76709V3.16667H8.06709V1.46667H6.93376V3.16667H5.23376V4.30001H6.93376V6.00001ZM4.66709 11.1C4.04376 11.1 3.53942 11.61 3.53942 12.2333C3.53942 12.8567 4.04376 13.3667 4.66709 13.3667C5.29042 13.3667 5.80042 12.8567 5.80042 12.2333C5.80042 11.61 5.29042 11.1 4.66709 11.1ZM10.3338 11.1C9.71042 11.1 9.20609 11.61 9.20609 12.2333C9.20609 12.8567 9.71042 13.3667 10.3338 13.3667C10.9571 13.3667 11.4671 12.8567 11.4671 12.2333C11.4671 11.61 10.9571 11.1 10.3338 11.1ZM4.76342 9.25834L4.78042 9.19034L5.29042 8.26668H9.51209C9.93709 8.26668 10.3111 8.03434 10.5038 7.68301L12.6911 3.71068L11.7051 3.16667H11.6994L11.0761 4.30001L9.51209 7.13334H5.53409L5.46042 6.98034L4.19109 4.30001L3.65276 3.16667L3.12009 2.03334H1.26709V3.16667H2.40042L4.44042 7.46768L3.67542 8.85601C3.58476 9.01468 3.53376 9.20168 3.53376 9.40001C3.53376 10.0233 4.04376 10.5333 4.66709 10.5333H11.4671V9.40001H4.90509C4.83142 9.40001 4.76342 9.33768 4.76342 9.25834Z" fill="white"/>
</g>
<defs>
<clipPath id="clip0_15254_45">
<rect width="13.6" height="13.6" fill="white" transform="translate(0.700195 0.899994)"/>
</clipPath>
</defs>
</svg>
